<?xml version="1.0" encoding="utf-8" standalone="no"?>
<!DOCTYPE svg PUBLIC "-//W3C//DTD SVG 1.1//EN"
  "http://www.w3.org/Graphics/SVG/1.1/DTD/svg11.dtd">
<svg xmlns:xlink="http://www.w3.org/1999/xlink" width="576pt" height="360pt" viewBox="0 0 576 360" xmlns="http://www.w3.org/2000/svg" version="1.1">
 <metadata>
  <rdf:RDF xmlns:dc="http://purl.org/dc/elements/1.1/" xmlns:cc="http://creativecommons.org/ns#" xmlns:rdf="http://www.w3.org/1999/02/22-rdf-syntax-ns#">
   <cc:Work>
    <dc:type rdf:resource="http://purl.org/dc/dcmitype/StillImage"/>
    <dc:date>2022-07-22T08:49:07.843669</dc:date>
    <dc:format>image/svg+xml</dc:format>
    <dc:creator>
     <cc:Agent>
      <dc:title>Matplotlib v3.5.1, https://matplotlib.org/</dc:title>
     </cc:Agent>
    </dc:creator>
   </cc:Work>
  </rdf:RDF>
 </metadata>
 <defs>
  <style type="text/css">*{stroke-linejoin: round; stroke-linecap: butt}</style>
 </defs>
 <g id="figure_1">
  <g id="patch_1">
   <path d="M 0 360 
L 576 360 
L 576 0 
L 0 0 
L 0 360 
z
" style="fill: none"/>
  </g>
  <g id="axes_1">
   <g id="patch_2">
    <path d="M 72 315 
L 518.4 315 
L 518.4 43.2 
L 72 43.2 
z
" style="fill: #ffffff"/>
   </g>
   <g id="matplotlib.axis_1">
    <g id="xtick_1">
     <g id="line2d_1">
      <defs>
       <path id="mdb7e483f24" d="M 0 0 
L 0 3.5 
" style="stroke: #000000; stroke-width: 0.8"/>
      </defs>
      <g>
       <use xlink:href="#mdb7e483f24" x="92.290909" y="315" style="stroke: #000000; stroke-width: 0.8"/>
      </g>
     </g>
     <g id="text_1">
      <!-- 1 -->
      <g transform="translate(89.51044 329.157812)scale(0.1 -0.1)">
       <defs>
        <path id="ArialUnicodeMS-31" d="M 2400 0 
L 1838 0 
L 1838 3584 
Q 1416 3184 709 2906 
L 709 3450 
Q 1681 3916 2034 4603 
L 2400 4603 
L 2400 0 
z
" transform="scale(0.015625)"/>
       </defs>
       <use xlink:href="#ArialUnicodeMS-31"/>
      </g>
     </g>
    </g>
    <g id="xtick_2">
     <g id="line2d_2">
      <g>
       <use xlink:href="#mdb7e483f24" x="159.927273" y="315" style="stroke: #000000; stroke-width: 0.8"/>
      </g>
     </g>
     <g id="text_2">
      <!-- 2 -->
      <g transform="translate(157.146804 329.157812)scale(0.1 -0.1)">
       <defs>
        <path id="ArialUnicodeMS-32" d="M 3231 0 
L 197 0 
Q 197 388 467 784 
Q 738 1181 1478 1778 
Q 1931 2141 2287 2539 
Q 2644 2938 2644 3341 
Q 2644 3688 2398 3914 
Q 2153 4141 1778 4141 
Q 1400 4141 1144 3908 
Q 888 3675 884 3213 
L 306 3278 
Q 359 3922 764 4262 
Q 1169 4603 1791 4603 
Q 2466 4603 2842 4229 
Q 3219 3856 3219 3328 
Q 3219 2888 2901 2436 
Q 2584 1984 1638 1228 
Q 1141 831 978 544 
L 3231 544 
L 3231 0 
z
" transform="scale(0.015625)"/>
       </defs>
       <use xlink:href="#ArialUnicodeMS-32"/>
      </g>
     </g>
    </g>
    <g id="xtick_3">
     <g id="line2d_3">
      <g>
       <use xlink:href="#mdb7e483f24" x="227.563636" y="315" style="stroke: #000000; stroke-width: 0.8"/>
      </g>
     </g>
     <g id="text_3">
      <!-- 3 -->
      <g transform="translate(224.783168 329.157812)scale(0.1 -0.1)">
       <defs>
        <path id="ArialUnicodeMS-33" d="M 2425 2478 
Q 2850 2397 3067 2067 
Q 3284 1738 3284 1350 
Q 3284 725 2829 323 
Q 2375 -78 1741 -78 
Q 1134 -78 740 275 
Q 347 628 281 1209 
L 844 1288 
Q 928 834 1151 609 
Q 1375 384 1741 384 
Q 2134 384 2407 661 
Q 2681 938 2681 1338 
Q 2681 1722 2432 1975 
Q 2184 2228 1784 2228 
Q 1622 2228 1388 2169 
L 1453 2663 
Q 1678 2663 1809 2684 
Q 1941 2706 2103 2790 
Q 2266 2875 2372 3033 
Q 2478 3191 2478 3425 
Q 2478 3766 2251 3953 
Q 2025 4141 1728 4141 
Q 1388 4141 1173 3925 
Q 959 3709 903 3309 
L 341 3413 
Q 450 4009 823 4306 
Q 1197 4603 1716 4603 
Q 2288 4603 2670 4258 
Q 3053 3913 3053 3413 
Q 3053 2772 2425 2491 
L 2425 2478 
z
" transform="scale(0.015625)"/>
       </defs>
       <use xlink:href="#ArialUnicodeMS-33"/>
      </g>
     </g>
    </g>
    <g id="xtick_4">
     <g id="line2d_4">
      <g>
       <use xlink:href="#mdb7e483f24" x="295.2" y="315" style="stroke: #000000; stroke-width: 0.8"/>
      </g>
     </g>
     <g id="text_4">
      <!-- 4 -->
      <g transform="translate(292.419531 329.157812)scale(0.1 -0.1)">
       <defs>
        <path id="ArialUnicodeMS-34" d="M 3263 1094 
L 2644 1094 
L 2644 0 
L 2081 0 
L 2081 1094 
L 97 1094 
L 97 1613 
L 2181 4581 
L 2644 4581 
L 2644 1613 
L 3263 1613 
L 3263 1094 
z
M 2081 1613 
L 2081 3681 
L 2069 3681 
L 647 1613 
L 2081 1613 
z
" transform="scale(0.015625)"/>
       </defs>
       <use xlink:href="#ArialUnicodeMS-34"/>
      </g>
     </g>
    </g>
    <g id="xtick_5">
     <g id="line2d_5">
      <g>
       <use xlink:href="#mdb7e483f24" x="362.836364" y="315" style="stroke: #000000; stroke-width: 0.8"/>
      </g>
     </g>
     <g id="text_5">
      <!-- 5 -->
      <g transform="translate(360.055895 329.157812)scale(0.1 -0.1)">
       <defs>
        <path id="ArialUnicodeMS-35" d="M 1013 2753 
Q 1431 3041 1881 3041 
Q 2453 3041 2878 2636 
Q 3303 2231 3303 1556 
Q 3303 875 2872 398 
Q 2441 -78 1741 -78 
Q 1169 -78 750 245 
Q 331 569 269 1203 
L 856 1247 
Q 928 813 1162 598 
Q 1397 384 1741 384 
Q 2169 384 2434 707 
Q 2700 1031 2700 1503 
Q 2700 1984 2428 2262 
Q 2156 2541 1728 2541 
Q 1188 2541 897 2100 
L 366 2163 
L 813 4519 
L 3084 4519 
L 3084 3975 
L 1259 3975 
L 1013 2753 
z
" transform="scale(0.015625)"/>
       </defs>
       <use xlink:href="#ArialUnicodeMS-35"/>
      </g>
     </g>
    </g>
    <g id="xtick_6">
     <g id="line2d_6">
      <g>
       <use xlink:href="#mdb7e483f24" x="430.472727" y="315" style="stroke: #000000; stroke-width: 0.8"/>
      </g>
     </g>
     <g id="text_6">
      <!-- 6 -->
      <g transform="translate(427.692259 329.157812)scale(0.1 -0.1)">
       <defs>
        <path id="ArialUnicodeMS-36" d="M 838 2363 
Q 1225 2969 1941 2969 
Q 2503 2969 2897 2553 
Q 3291 2138 3291 1491 
Q 3291 838 2898 380 
Q 2506 -78 1856 -78 
Q 1197 -78 733 409 
Q 269 897 269 2144 
Q 269 3369 689 3986 
Q 1109 4603 1906 4603 
Q 2422 4603 2778 4315 
Q 3134 4028 3213 3463 
L 2650 3413 
Q 2497 4141 1875 4141 
Q 1444 4141 1134 3712 
Q 825 3284 825 2363 
L 838 2363 
z
M 1844 384 
Q 2231 384 2472 696 
Q 2713 1009 2713 1453 
Q 2713 1897 2472 2187 
Q 2231 2478 1825 2478 
Q 1453 2478 1184 2204 
Q 916 1931 916 1484 
Q 916 1028 1180 706 
Q 1444 384 1844 384 
z
" transform="scale(0.015625)"/>
       </defs>
       <use xlink:href="#ArialUnicodeMS-36"/>
      </g>
     </g>
    </g>
    <g id="xtick_7">
     <g id="line2d_7">
      <g>
       <use xlink:href="#mdb7e483f24" x="498.109091" y="315" style="stroke: #000000; stroke-width: 0.8"/>
      </g>
     </g>
     <g id="text_7">
      <!-- 7 -->
      <g transform="translate(495.328622 329.157812)scale(0.1 -0.1)">
       <defs>
        <path id="ArialUnicodeMS-37" d="M 3272 4084 
Q 2597 3344 2103 2253 
Q 1609 1163 1522 0 
L 947 0 
Q 969 934 1408 2051 
Q 1847 3169 2547 3975 
L 306 3975 
L 306 4519 
L 3272 4519 
L 3272 4084 
z
" transform="scale(0.015625)"/>
       </defs>
       <use xlink:href="#ArialUnicodeMS-37"/>
      </g>
     </g>
    </g>
    <g id="text_8">
     <!-- 主题数目 -->
     <g transform="translate(271.2 343.739375)scale(0.12 -0.12)">
      <defs>
       <path id="ArialUnicodeMS-4e3b" d="M 3719 4294 
L 3278 4044 
Q 2963 4631 2150 5113 
L 2572 5381 
Q 3303 5016 3719 4294 
z
M 5953 -38 
L 519 -38 
L 519 428 
L 2988 428 
L 2988 1856 
L 1119 1856 
L 1119 2344 
L 2988 2344 
L 2988 3513 
L 691 3513 
L 691 3981 
L 5747 3981 
L 5759 3513 
L 3481 3513 
L 3481 2344 
L 5363 2344 
L 5350 1856 
L 3494 1856 
L 3494 428 
L 5953 428 
L 5953 -38 
z
" transform="scale(0.015625)"/>
       <path id="ArialUnicodeMS-9898" d="M 5838 4575 
L 4622 4575 
Q 4581 4338 4481 4084 
L 5600 4084 
L 5600 1684 
L 5147 1684 
L 5147 3616 
L 3775 3616 
L 3775 1684 
L 3322 1684 
L 3322 4084 
L 3950 4084 
Q 4066 4256 4147 4575 
L 2969 4575 
L 2969 5044 
L 5838 5044 
L 5838 4575 
z
M 2797 2950 
L 750 2950 
L 750 5044 
L 2797 5044 
L 2797 2950 
z
M 2344 4269 
L 2344 4575 
L 1234 4575 
L 1234 4269 
L 2344 4269 
z
M 2344 3419 
L 2344 3803 
L 1234 3803 
L 1234 3419 
L 2344 3419 
z
M 4684 3316 
Q 4672 2319 4597 1851 
Q 4522 1384 4175 1001 
Q 3828 619 3353 475 
L 3103 397 
L 2809 844 
Q 3447 988 3836 1375 
Q 4225 1763 4225 2913 
Q 4225 3122 4213 3372 
L 4684 3316 
z
M 6022 384 
L 5850 -128 
L 2888 -128 
Q 2422 -128 1950 61 
Q 1478 250 1178 588 
Q 913 -22 581 -403 
Q 513 -341 388 -247 
Q 263 -153 206 -103 
Q 981 756 941 2106 
L 1381 1966 
Q 1391 1384 1313 1113 
Q 1491 878 1600 819 
L 1600 2284 
L 347 2284 
L 347 2753 
L 3200 2753 
L 3200 2284 
L 2088 2284 
L 2088 1772 
L 3078 1772 
L 3078 1331 
L 2088 1331 
L 2088 525 
Q 2513 341 2969 341 
L 5275 341 
Q 5691 341 6022 384 
z
M 5894 781 
L 5528 428 
Q 5191 1072 4581 1403 
L 4903 1728 
Q 5591 1331 5894 781 
z
" transform="scale(0.015625)"/>
       <path id="ArialUnicodeMS-6570" d="M 6138 19 
L 5806 -378 
Q 5031 194 4697 716 
Q 4344 144 3328 -441 
L 2981 -50 
Q 3966 434 4403 1153 
Q 4038 1834 3866 2753 
Q 3678 2356 3353 1919 
L 2950 2203 
Q 3838 3172 3963 5253 
L 4409 5125 
Q 4341 4384 4269 4006 
L 5984 4006 
L 5984 3547 
L 5619 3541 
L 5594 3341 
Q 5441 2113 4978 1191 
Q 5281 672 6138 19 
z
M 5166 3541 
L 4172 3541 
Q 4297 2419 4691 1650 
Q 5038 2513 5166 3541 
z
M 3438 3653 
L 2209 3653 
L 2209 2338 
L 1919 2338 
Q 1900 2269 1753 1931 
L 3225 1931 
L 3225 1472 
L 2913 1472 
Q 2763 991 2503 666 
Q 2947 353 3103 184 
L 2747 -172 
Q 2463 138 2150 313 
Q 1322 -225 563 -428 
L 269 6 
Q 1106 163 1684 563 
Q 1291 756 703 884 
L 1038 1472 
L 403 1472 
L 403 1931 
L 1259 1931 
Q 1328 2056 1466 2553 
L 1747 2484 
L 1747 3653 
L 1716 3653 
Q 1413 2881 678 2456 
L 378 2803 
Q 938 3091 1241 3653 
L 403 3653 
L 403 4122 
L 1747 4122 
L 1747 5228 
L 2209 5228 
L 2209 4122 
L 3438 4122 
L 3438 3653 
z
M 2406 1472 
L 1538 1472 
Q 1422 1241 1369 1153 
Q 1388 1159 2069 884 
Q 2219 1031 2406 1472 
z
M 1625 4441 
L 1288 4159 
Q 1022 4547 575 4813 
L 878 5075 
Q 1394 4844 1625 4441 
z
M 3384 4844 
Q 3097 4409 2669 4172 
L 2322 4481 
Q 2806 4759 3047 5069 
L 3384 4844 
z
M 3303 2888 
L 2944 2578 
Q 2706 3025 2291 3297 
L 2584 3566 
Q 2988 3359 3303 2888 
z
" transform="scale(0.015625)"/>
       <path id="ArialUnicodeMS-76ee" d="M 4909 -269 
L 4403 -269 
L 4403 288 
L 1825 288 
L 1825 -269 
L 1319 -269 
L 1319 4934 
L 4909 4934 
L 4909 -269 
z
M 4403 3609 
L 4403 4469 
L 1825 4469 
L 1825 3609 
L 4403 3609 
z
M 4403 2228 
L 4403 3144 
L 1825 3144 
L 1825 2228 
L 4403 2228 
z
M 4403 775 
L 4403 1759 
L 1825 1759 
L 1825 775 
L 4403 775 
z
" transform="scale(0.015625)"/>
      </defs>
      <use xlink:href="#ArialUnicodeMS-4e3b"/>
      <use xlink:href="#ArialUnicodeMS-9898" x="100"/>
      <use xlink:href="#ArialUnicodeMS-6570" x="200"/>
      <use xlink:href="#ArialUnicodeMS-76ee" x="300"/>
     </g>
    </g>
   </g>
   <g id="matplotlib.axis_2">
    <g id="ytick_1">
     <g id="line2d_8">
      <defs>
       <path id="m75e71efaa1" d="M 0 0 
L -3.5 0 
" style="stroke: #000000; stroke-width: 0.8"/>
      </defs>
      <g>
       <use xlink:href="#m75e71efaa1" x="72" y="302.645455" style="stroke: #000000; stroke-width: 0.8"/>
      </g>
     </g>
     <g id="text_9">
      <!-- 90 -->
      <g transform="translate(53.878125 306.224361)scale(0.1 -0.1)">
       <defs>
        <path id="ArialUnicodeMS-39" d="M 2713 2156 
Q 2547 1888 2258 1722 
Q 1969 1556 1631 1556 
Q 1066 1556 670 1970 
Q 275 2384 275 3053 
Q 275 3734 678 4168 
Q 1081 4603 1716 4603 
Q 2353 4603 2818 4106 
Q 3284 3609 3284 2388 
Q 3284 1147 2859 534 
Q 2434 -78 1644 -78 
Q 1128 -78 781 205 
Q 434 488 359 1063 
L 897 1106 
Q 1025 384 1656 384 
Q 2175 384 2450 857 
Q 2725 1331 2725 2156 
L 2713 2156 
z
M 1766 2047 
Q 2178 2047 2420 2339 
Q 2663 2631 2663 3078 
Q 2663 3531 2414 3836 
Q 2166 4141 1778 4141 
Q 1388 4141 1119 3817 
Q 850 3494 850 3034 
Q 850 2600 1114 2323 
Q 1378 2047 1766 2047 
z
" transform="scale(0.015625)"/>
        <path id="ArialUnicodeMS-30" d="M 1778 4603 
Q 3272 4603 3272 2259 
Q 3272 1075 2886 498 
Q 2500 -78 1778 -78 
Q 288 -78 288 2259 
Q 288 3444 673 4023 
Q 1059 4603 1778 4603 
z
M 1778 384 
Q 2231 384 2462 823 
Q 2694 1263 2694 2259 
Q 2694 2953 2592 3351 
Q 2491 3750 2286 3945 
Q 2081 4141 1772 4141 
Q 1319 4141 1091 3694 
Q 863 3247 863 2259 
Q 863 1575 966 1175 
Q 1069 775 1272 579 
Q 1475 384 1778 384 
z
" transform="scale(0.015625)"/>
       </defs>
       <use xlink:href="#ArialUnicodeMS-39"/>
       <use xlink:href="#ArialUnicodeMS-30" x="55.615234"/>
      </g>
     </g>
    </g>
    <g id="ytick_2">
     <g id="line2d_9">
      <g>
       <use xlink:href="#m75e71efaa1" x="72" y="257.719835" style="stroke: #000000; stroke-width: 0.8"/>
      </g>
     </g>
     <g id="text_10">
      <!-- 100 -->
      <g transform="translate(48.317188 261.298741)scale(0.1 -0.1)">
       <use xlink:href="#ArialUnicodeMS-31"/>
       <use xlink:href="#ArialUnicodeMS-30" x="55.615234"/>
       <use xlink:href="#ArialUnicodeMS-30" x="111.230469"/>
      </g>
     </g>
    </g>
    <g id="ytick_3">
     <g id="line2d_10">
      <g>
       <use xlink:href="#m75e71efaa1" x="72" y="212.794215" style="stroke: #000000; stroke-width: 0.8"/>
      </g>
     </g>
     <g id="text_11">
      <!-- 110 -->
      <g transform="translate(48.317188 216.373121)scale(0.1 -0.1)">
       <use xlink:href="#ArialUnicodeMS-31"/>
       <use xlink:href="#ArialUnicodeMS-31" x="55.615234"/>
       <use xlink:href="#ArialUnicodeMS-30" x="111.230469"/>
      </g>
     </g>
    </g>
    <g id="ytick_4">
     <g id="line2d_11">
      <g>
       <use xlink:href="#m75e71efaa1" x="72" y="167.868595" style="stroke: #000000; stroke-width: 0.8"/>
      </g>
     </g>
     <g id="text_12">
      <!-- 120 -->
      <g transform="translate(48.317188 171.447501)scale(0.1 -0.1)">
       <use xlink:href="#ArialUnicodeMS-31"/>
       <use xlink:href="#ArialUnicodeMS-32" x="55.615234"/>
       <use xlink:href="#ArialUnicodeMS-30" x="111.230469"/>
      </g>
     </g>
    </g>
    <g id="ytick_5">
     <g id="line2d_12">
      <g>
       <use xlink:href="#m75e71efaa1" x="72" y="122.942975" style="stroke: #000000; stroke-width: 0.8"/>
      </g>
     </g>
     <g id="text_13">
      <!-- 130 -->
      <g transform="translate(48.317188 126.521881)scale(0.1 -0.1)">
       <use xlink:href="#ArialUnicodeMS-31"/>
       <use xlink:href="#ArialUnicodeMS-33" x="55.615234"/>
       <use xlink:href="#ArialUnicodeMS-30" x="111.230469"/>
      </g>
     </g>
    </g>
    <g id="ytick_6">
     <g id="line2d_13">
      <g>
       <use xlink:href="#m75e71efaa1" x="72" y="78.017355" style="stroke: #000000; stroke-width: 0.8"/>
      </g>
     </g>
     <g id="text_14">
      <!-- 140 -->
      <g transform="translate(48.317188 81.596262)scale(0.1 -0.1)">
       <use xlink:href="#ArialUnicodeMS-31"/>
       <use xlink:href="#ArialUnicodeMS-34" x="55.615234"/>
       <use xlink:href="#ArialUnicodeMS-30" x="111.230469"/>
      </g>
     </g>
    </g>
    <g id="text_15">
     <!-- 困惑度 -->
     <g transform="translate(41.926563 197.1)rotate(-90)scale(0.12 -0.12)">
      <defs>
       <path id="ArialUnicodeMS-56f0" d="M 5672 -416 
L 5184 -416 
L 5184 -78 
L 1216 -78 
L 1216 -416 
L 728 -416 
L 728 5019 
L 5672 5019 
L 5672 -416 
z
M 5184 391 
L 5184 4550 
L 1216 4550 
L 1216 391 
L 5184 391 
z
M 5159 1269 
L 4806 891 
Q 3747 1644 3438 2969 
L 3438 506 
L 2950 506 
L 2950 2944 
Q 2566 1531 1575 856 
L 1234 1209 
Q 2138 1741 2559 3213 
L 1428 3213 
L 1428 3681 
L 2950 3681 
L 2950 4409 
L 3438 4409 
L 3438 3681 
L 4941 3681 
L 4941 3213 
L 3816 3213 
Q 4238 1791 5159 1269 
z
" transform="scale(0.015625)"/>
       <path id="ArialUnicodeMS-60d1" d="M 6131 2528 
Q 5944 1813 5769 1681 
Q 5594 1550 5391 1550 
Q 5109 1550 4500 2094 
Q 4169 1781 3584 1428 
L 3163 1784 
Q 3341 1844 3413 1906 
L 813 1606 
L 434 2088 
Q 1119 2119 3525 2381 
L 3525 1953 
Q 3706 2066 4172 2484 
Q 3794 2947 3591 4134 
L 506 4134 
L 506 4594 
L 3547 4594 
Q 3484 4953 3475 5403 
L 3944 5403 
Q 3975 4953 4025 4594 
L 4647 4594 
Q 4472 4878 4256 5056 
L 4788 5197 
Q 5056 4872 5141 4594 
L 5913 4594 
L 5913 4134 
L 4091 4134 
Q 4234 3263 4513 2859 
Q 4863 3356 5088 4056 
L 5522 3872 
Q 5247 3034 4813 2491 
Q 5003 2278 5172 2173 
Q 5341 2069 5381 2069 
Q 5572 2069 5625 2747 
L 6131 2528 
z
M 3297 2472 
L 1075 2472 
L 1075 3853 
L 3297 3853 
L 3297 2472 
z
M 2809 2931 
L 2809 3391 
L 1563 3391 
L 1563 2931 
L 2809 2931 
z
M 3963 813 
L 3506 544 
Q 3081 1272 2700 1434 
L 3156 1663 
Q 3553 1459 3963 813 
z
M 4709 794 
Q 4634 309 4490 90 
Q 4347 -128 4025 -128 
L 2591 -128 
Q 2047 -66 2047 622 
L 2047 1441 
L 2553 1441 
L 2553 513 
Q 2572 422 2630 376 
Q 2688 331 2713 331 
L 3975 331 
Q 4125 378 4178 641 
L 4250 984 
L 4709 794 
z
M 1925 1147 
Q 1816 834 1448 509 
Q 1081 184 709 44 
L 319 422 
Q 1034 616 1581 1422 
L 1925 1147 
z
M 6131 269 
L 5728 -25 
Q 5256 734 4494 1088 
L 4878 1375 
Q 5641 1047 6131 269 
z
" transform="scale(0.015625)"/>
       <path id="ArialUnicodeMS-5ea6" d="M 5913 4269 
L 1363 4269 
L 1363 2278 
Q 1363 1144 1180 528 
Q 997 -88 684 -434 
L 294 -147 
Q 669 378 773 940 
Q 878 1503 878 2350 
L 878 4738 
L 3200 4738 
L 3200 5288 
L 3706 5288 
L 3706 4738 
L 5913 4738 
L 5913 4269 
z
M 5778 3194 
L 4728 3194 
L 4728 2303 
L 2350 2303 
L 2350 3194 
L 1472 3194 
L 1472 3659 
L 2350 3659 
L 2350 4147 
L 2828 4147 
L 2828 3659 
L 4244 3659 
L 4244 4147 
L 4728 4147 
L 4728 3659 
L 5778 3659 
L 5778 3194 
z
M 4244 2747 
L 4244 3194 
L 2834 3194 
L 2834 2747 
L 4244 2747 
z
M 6081 72 
L 5819 -397 
Q 4484 -216 3531 263 
Q 2494 -234 1388 -397 
L 1088 44 
Q 2078 134 3034 550 
Q 2509 934 2113 1528 
L 1625 1528 
L 1625 1972 
L 5159 1972 
L 5159 1544 
Q 4819 1025 4044 538 
Q 4963 166 6081 72 
z
M 4544 1528 
L 2700 1528 
Q 3125 1038 3531 781 
Q 4194 1159 4544 1528 
z
" transform="scale(0.015625)"/>
      </defs>
      <use xlink:href="#ArialUnicodeMS-56f0"/>
      <use xlink:href="#ArialUnicodeMS-60d1" x="100"/>
      <use xlink:href="#ArialUnicodeMS-5ea6" x="200"/>
     </g>
    </g>
   </g>
   <g id="line2d_14">
    <path d="M 92.290909 55.554545 
L 159.927273 122.942975 
L 227.563636 257.719835 
L 295.2 212.794215 
L 362.836364 302.645455 
L 430.472727 257.719835 
L 498.109091 212.794215 
" clip-path="url(#pcc89f76a84)" style="fill: none; stroke: #1f77b4; stroke-width: 1.5; stroke-linecap: square"/>
   </g>
   <g id="patch_3">
    <path d="M 72 315 
L 72 43.2 
" style="fill: none; stroke: #000000; stroke-width: 0.8; stroke-linejoin: miter; stroke-linecap: square"/>
   </g>
   <g id="patch_4">
    <path d="M 518.4 315 
L 518.4 43.2 
" style="fill: none; stroke: #000000; stroke-width: 0.8; stroke-linejoin: miter; stroke-linecap: square"/>
   </g>
   <g id="patch_5">
    <path d="M 72 315 
L 518.4 315 
" style="fill: none; stroke: #000000; stroke-width: 0.8; stroke-linejoin: miter; stroke-linecap: square"/>
   </g>
   <g id="patch_6">
    <path d="M 72 43.2 
L 518.4 43.2 
" style="fill: none; stroke: #000000; stroke-width: 0.8; stroke-linejoin: miter; stroke-linecap: square"/>
   </g>
   <g id="text_16">
    <!-- 主题-困惑度变化情况 -->
    <g transform="translate(239.202187 37.2)scale(0.12 -0.12)">
     <defs>
      <path id="ArialUnicodeMS-2d" d="M 1925 1375 
L 206 1375 
L 206 1941 
L 1925 1941 
L 1925 1375 
z
" transform="scale(0.015625)"/>
      <path id="ArialUnicodeMS-53d8" d="M 5813 4050 
L 3938 4050 
L 3938 2350 
L 3469 2350 
L 3481 4050 
L 2719 4050 
L 2719 2350 
L 2266 2350 
L 2266 4050 
L 372 4050 
L 372 4494 
L 3009 4494 
Q 2856 4744 2400 5031 
L 2694 5331 
Q 3203 5041 3513 4634 
L 3341 4513 
L 3341 4494 
L 5813 4494 
L 5813 4050 
z
M 1947 3519 
Q 1559 2866 775 2059 
L 416 2425 
Q 1016 2938 1594 3809 
L 1947 3519 
z
M 5838 2484 
L 5409 2209 
Q 5081 2878 4306 3488 
L 4653 3756 
Q 5550 3047 5838 2484 
z
M 5978 78 
L 5691 -366 
Q 5153 -297 4609 -142 
Q 4066 13 3188 481 
Q 2103 -150 519 -378 
Q 438 -222 244 63 
Q 1741 225 2753 775 
Q 2309 1069 1819 1784 
L 1350 1784 
L 1350 2253 
L 4603 2253 
L 4603 1791 
Q 4038 1091 3597 775 
Q 4497 263 5978 78 
z
M 3975 1784 
L 2413 1784 
Q 2641 1425 3188 1044 
Q 3763 1481 3975 1784 
z
" transform="scale(0.015625)"/>
      <path id="ArialUnicodeMS-5316" d="M 2431 5147 
Q 2322 4731 2081 4159 
L 1844 3603 
L 1844 -366 
L 1350 -366 
L 1350 2834 
Q 1006 2356 653 2075 
L 306 2444 
Q 1350 3319 2003 5350 
L 2431 5147 
z
M 6081 1325 
Q 5994 419 5786 114 
Q 5578 -191 5203 -191 
L 3872 -191 
Q 3534 -191 3339 -12 
Q 3144 166 3144 469 
L 3144 5178 
L 3628 5178 
L 3628 2853 
Q 4478 3413 5288 4488 
L 5709 4197 
Q 4800 2984 3628 2272 
L 3628 550 
Q 3628 288 3981 288 
L 5113 288 
Q 5553 288 5581 1503 
L 6081 1325 
z
" transform="scale(0.015625)"/>
      <path id="ArialUnicodeMS-60c5" d="M 6009 2944 
L 2291 2944 
L 1978 2828 
Q 1897 3128 1678 3506 
L 1678 -422 
L 1191 -422 
L 1191 5241 
L 1678 5241 
L 1678 3944 
L 1875 4044 
Q 2063 3806 2284 3406 
L 3744 3406 
L 3744 3719 
L 2591 3719 
L 2591 4178 
L 3744 4178 
L 3744 4453 
L 2322 4453 
L 2322 4916 
L 3744 4916 
L 3744 5356 
L 4231 5356 
L 4231 4916 
L 5691 4916 
L 5691 4453 
L 4231 4453 
L 4231 4178 
L 5381 4178 
L 5381 3719 
L 4231 3719 
L 4231 3406 
L 6009 3406 
L 6009 2944 
z
M 1056 3975 
Q 1047 3309 563 2456 
L 122 2688 
Q 616 3441 634 4128 
L 1056 3975 
z
M 5447 197 
Q 5447 -319 4781 -319 
L 4281 -319 
L 4097 141 
Q 4331 128 4469 128 
Q 4816 128 4891 167 
Q 4966 206 4966 594 
L 3078 594 
L 3078 -422 
L 2591 -422 
L 2591 2650 
L 5447 2650 
L 5447 197 
z
M 4959 1888 
L 4959 2188 
L 3078 2188 
L 3078 1888 
L 4959 1888 
z
M 4959 1056 
L 4959 1428 
L 3078 1428 
L 3078 1056 
L 4959 1056 
z
" transform="scale(0.015625)"/>
      <path id="ArialUnicodeMS-51b5" d="M 5972 1100 
Q 5891 500 5722 167 
Q 5553 -166 5147 -166 
L 4556 -166 
Q 4247 -138 4111 51 
Q 3975 241 3975 372 
L 3975 2406 
L 3566 2406 
Q 3566 209 1753 -459 
L 1434 0 
Q 2322 303 2686 861 
Q 3050 1419 3059 2406 
L 2309 2406 
L 2309 4850 
L 5247 4850 
L 5247 2406 
L 4459 2406 
L 4459 525 
Q 4459 300 4691 300 
L 5056 300 
Q 5253 300 5328 448 
Q 5403 597 5459 1325 
L 5972 1100 
z
M 4744 2875 
L 4744 4384 
L 2797 4384 
L 2797 2875 
L 4744 2875 
z
M 1856 3456 
L 1459 3116 
Q 1088 3916 281 4447 
L 622 4781 
Q 1059 4500 1415 4100 
Q 1772 3700 1856 3456 
z
M 1747 2350 
Q 1466 800 647 -172 
L 244 116 
Q 1031 1056 1338 2591 
L 1747 2350 
z
" transform="scale(0.015625)"/>
     </defs>
     <use xlink:href="#ArialUnicodeMS-4e3b"/>
     <use xlink:href="#ArialUnicodeMS-9898" x="100"/>
     <use xlink:href="#ArialUnicodeMS-2d" x="200"/>
     <use xlink:href="#ArialUnicodeMS-56f0" x="233.300781"/>
     <use xlink:href="#ArialUnicodeMS-60d1" x="333.300781"/>
     <use xlink:href="#ArialUnicodeMS-5ea6" x="433.300781"/>
     <use xlink:href="#ArialUnicodeMS-53d8" x="533.300781"/>
     <use xlink:href="#ArialUnicodeMS-5316" x="633.300781"/>
     <use xlink:href="#ArialUnicodeMS-60c5" x="733.300781"/>
     <use xlink:href="#ArialUnicodeMS-51b5" x="833.300781"/>
    </g>
   </g>
  </g>
 </g>
 <defs>
  <clipPath id="pcc89f76a84">
   <rect x="72" y="43.2" width="446.4" height="271.8"/>
  </clipPath>
 </defs>
</svg>
